/* XPM */
static char *_d505bc3ae234585feae5a239f3b4f728hRSN6NtSyW64V6A[] = {
/* columns rows colors chars-per-pixel */
"64 64 248 2 ",
"   c #050D03",
".  c #011401",
"X  c #011B01",
"o  c #071808",
"O  c #0B1816",
"+  c #131D13",
"@  c #012401",
"#  c #0B2403",
"$  c #032B02",
"%  c #092907",
"&  c #142A06",
"*  c #033401",
"=  c #0B3706",
"-  c #033B02",
";  c #15390A",
":  c #152614",
">  c #1A3415",
",  c #232A1C",
"<  c #233C19",
"1  c #1B2A23",
"2  c #2A3127",
"3  c #273A26",
"4  c #034300",
"5  c #0B4403",
"6  c #044B00",
"7  c #0C4805",
"8  c #174A06",
"9  c #0A5402",
"0  c #185607",
"q  c #1C4A15",
"w  c #165211",
"e  c #20540B",
"r  c #24481A",
"t  c #265D17",
"y  c #186904",
"u  c #166E08",
"i  c #057A02",
"p  c #24680C",
"a  c #28750E",
"s  c #276715",
"d  c #2B7118",
"f  c #33731B",
"g  c #274C23",
"h  c #314B2A",
"j  c #2A5526",
"k  c #36582B",
"l  c #394A36",
"z  c #3A5435",
"x  c #346A27",
"c  c #367727",
"v  c #31722B",
"b  c #42463D",
"n  c #42563C",
"m  c #436E35",
"M  c #447539",
"N  c #485A43",
"B  c #535D54",
"V  c #4A6345",
"C  c #536849",
"Z  c #556952",
"A  c #5F6F5F",
"S  c #577653",
"D  c #6A7A65",
"F  c #727D6C",
"G  c #727F71",
"H  c #078806",
"J  c #168A03",
"K  c #0A9408",
"L  c #189A08",
"P  c #048B15",
"I  c #078B1A",
"U  c #1A8A17",
"Y  c #0C9318",
"T  c #179617",
"R  c #129B1B",
"E  c #248C06",
"W  c #289907",
"Q  c #38871D",
"!  c #299815",
"~  c #349717",
"^  c #17A209",
"/  c #18A319",
"(  c #29A806",
")  c #33A908",
"_  c #2DB908",
"`  c #35BA08",
"'  c #39BA0C",
"]  c #27A916",
"[  c #39A918",
"{  c #2AB915",
"}  c #38B517",
"|  c #34BD12",
" . c #3CBC14",
".. c #3BBC1B",
"X. c #098D27",
"o. c #0C9426",
"O. c #179823",
"+. c #3A8526",
"@. c #249B25",
"#. c #37942E",
"$. c #18A227",
"%. c #26A727",
"&. c #37A828",
"*. c #2FB124",
"=. c #38B625",
"-. c #3AB52C",
";. c #38AB39",
":. c #42AC12",
">. c #43BE14",
",. c #46BA19",
"<. c #43BD1C",
"1. c #448B27",
"2. c #449A27",
"3. c #51962F",
"4. c #468935",
"5. c #489735",
"6. c #47A827",
"7. c #51AC29",
"8. c #44BB23",
"9. c #48B728",
"0. c #4CBC2C",
"q. c #53BB2D",
"w. c #4AA736",
"e. c #56A73A",
"r. c #4DB737",
"t. c #54BB33",
"y. c #56B838",
"u. c #65BA3B",
"i. c #2CC608",
"p. c #34C30C",
"a. c #3CC30C",
"s. c #34CA08",
"d. c #3BCC0D",
"f. c #38D30C",
"g. c #3BD40D",
"h. c #35C313",
"j. c #3CC312",
"k. c #3BCB13",
"l. c #3CC31A",
"z. c #3BCA1B",
"x. c #37D214",
"c. c #3BC825",
"v. c #3DC130",
"b. c #44C40C",
"n. c #41D20D",
"m. c #43C314",
"M. c #42CA14",
"N. c #4ACD16",
"B. c #44C41C",
"V. c #4BC51C",
"C. c #45CB1C",
"Z. c #4BCA1C",
"A. c #52CB1C",
"S. c #45D416",
"D. c #44C423",
"F. c #4AC324",
"G. c #43CB23",
"H. c #4BCA23",
"J. c #45C62A",
"K. c #4DC32C",
"L. c #4CCB2B",
"P. c #53C729",
"I. c #54CB2C",
"U. c #4BD525",
"Y. c #4CD42B",
"T. c #53D22B",
"R. c #56D529",
"E. c #4CC833",
"W. c #53C434",
"Q. c #54CC33",
"!. c #58C639",
"~. c #5BCB3C",
"^. c #4CD433",
"/. c #56D434",
"(. c #63C53B",
"). c #63CB3C",
"_. c #65D83B",
"`. c #65EA31",
"'. c #359F47",
"]. c #568F48",
"[. c #599749",
"{. c #67905A",
"}. c #5AAA45",
"|. c #52AC4D",
" X c #5CAB4D",
".X c #5AB647",
"XX c #65AC4F",
"oX c #64B947",
"OX c #64AB52",
"+X c #69BA56",
"@X c #708A6D",
"#X c #788877",
"$X c #5CB069",
"%X c #72B269",
"&X c #5AC643",
"*X c #58C856",
"=X c #64CC44",
"-X c #65C549",
";X c #68D549",
":X c #64C453",
">X c #68C554",
",X c #74CC56",
"<X c #6AD752",
"1X c #76D558",
"2X c #78C966",
"3X c #76CA6F",
"4X c #79D565",
"5X c #808B77",
"6X c #84937D",
"7X c #8BA87D",
"8X c #84D869",
"9X c #82C671",
"0X c #889687",
"qX c #8B9389",
"wX c #939A94",
"eX c #96B98E",
"rX c #99A496",
"tX c #9DAC9B",
"yX c #A3AD9D",
"uX c #9EA7A0",
"iX c #A9ADA8",
"pX c #A9B6A5",
"aX c #B3BBAB",
"sX c #B4BCB2",
"dX c #95CA86",
"fX c #93D383",
"gX c #87EA80",
"hX c #AFCBA9",
"jX c #BBC3B9",
"kX c #C3C9BC",
"lX c #C5C9C5",
"zX c #CCD3C9",
"xX c #D1D7CE",
"cX c #CFD4D0",
"vX c #D7DBD6",
"bX c #D5E0D2",
"nX c #DEE2DB",
"mX c #DEF0D8",
"MX c #DFE3E0",
"NX c #E5E8E4",
"BX c #E5E9E4",
"VX c #EBEDEA",
"CX c #EEF1ED",
"ZX c #F0F3ED",
"AX c #F3F5F3",
"SX c #F6FAF6",
"DX c #F8F9F7",
"FX c #FFFFFF",
/* pixels */
"FXFXFXFXFXFXFXFXFXFXFXFXFXFXFXFXFXFXFXFXFXFXFXFXFXFXFXFXFXFXxXo rXFXFXFXFXFXFXFXFXFXFXFXFXFXFXFXFXFXFXFXFXFXFXFXFXFXFXFXFXFXFXFX",
"FXFXFXFXFXFXFXFXFXFXFXFXFXFXFXFXFXFXFXFXFXFXFXFXFXFXFXFXFXFXqXFXN DXFXFXFXFXFXFXFXFXFXFXFXFXFXFXFXFXFXFXFXFXFXFXFXFXFXFXFXFXFXFX",
"FXFXFXFXFXFXFXFXFXFXFXFXFXFXFXFXFXFXFXFXFXFXFXFXFXFXFXFXFXAXN N + VXFXFXFXFXFXFXFXFXFXFXFXFXFXFXFXFXFXFXFXFXFXFXFXFXFXFXFXFXFXFX",
"FXFXFXFXFXFXFXFXFXFXFXFXFXFXFXFXFXFXFXFXFXFXFXFXFXFXFXFXFXxX< S   NXFXFXFXFXFXFXFXFXFXFXFXFXFXFXFXFXFXFXFXFXFXFXFXFXFXFXFXFXFXFX",
"FXFXFXFXFXFXFXFXFXFXFXFXFXFXFXFXFXFXFXFXFXFXFXFXFXFXFXFXFX0X= %X  sXFXFXFXFXFXFXFXFXFXFXFXFXFXFXFXFXFXFXFXFXFXFXFXFXFXFXFXFXFXFX",
"FXFXFXFXFXFXFXFXFXFXFXFXFXFXFXFXFXFXFXFXFXFXFXFXFXFXFXFXFXS 0 %X> 6XFXFXFXFXFXFXFXFXFXFXFXFXFXFXFXFXFXFXFXFXFXFXFXFXFXFXFXFXFXFX",
"FXFXFXFXFXFXFXFXFXFXFXFXFXFXFXFXFXFXFXFXFXFXFXFXFXFXFXFXMXr f 2Xx z AXFXFXFXFXFXFXFXFXFXFXFXFXFXFXFXFXFXFXFXFXFXFXFXFXFXFXFXFXFX",
"FXFXFXFXFXFXFXFXFXFXFXFXFXFXFXFXFXFXFXFXFXFXFXFXFXFXFXFX#X$ +.1Xc % zXFXFXFXFXFXFXFXFXFXFXFXFXFXFXFXFXFXFXFXFXFXFXFXFXFXFXFXFXFX",
"FXFXFXFXFXFXFXFXFXFXFXFXFXFXFXFXFXFXFXFXFXFXFXFXFXFXFXvXo c y.*X1.e % DXFXFXFXFXFXFXFXFXFXFXFXFXFXFXFXFXFXFXFXFXFXFXFXFXFXFXFXFX",
"FXFXFXFXFXFXFXFXFXFXFXFXFXFXFXFXFXFXFXFXFXFXFXFXFXFXFXjX5  Xq.6.,X4.r xXFXFXFXFXFXFXFXFXFXFXFXFXFXFXFXFXFXFXFXFXFXFXFXFXFXFXFXFX",
"FXFXFXFXFXFXFXFXFXFXFXFXFXFXFXFXFXFXFXFXFXFXFXFXFXFXNXV = .X9.-.!.+.* k CXFXFXFXFXFXFXFXFXFXFXFXFXFXFXFXFXFXFXFXFXFXFXFXFXFXFXFX",
"FXFXFXFXFXFXFXFXFXFXFXFXFXFXFXFXFXFXFXFXFXFXFXFXFXFXD . e .XT c.P.~ s % 0XFXFXFXFXFXFXFXFXFXFXFXFXFXFXFXFXFXFXFXFXFXFXFXFXFXFXFX",
"FXFXFXFXFXFXFXFXFXFXFXFXFXFXFXFXFXFXFXFXFXFXFXFXFXAXr q OXW.H C./.F..X7 C FXFXFXFXFXFXFXFXFXFXFXFXFXFXFXFXFXFXFXFXFXFXFXFXFXFXFX",
"FXFXFXFXFXFXFXFXFXFXFXFXFXFXFXFXFXFXFXFXFXFXFXFXFXnX2 ].3X[ H /.S.} -Xs % zXFXFXFXFXFXFXFXFXFXFXFXFXFXFXFXFXFXFXFXFXFXFXFXFXFXFX",
"FXFXFXFXFXFXFXFXFXFXFXFXFXFXFXFXFXFXFXFXFXFXFXFXFXtXX {.+XU K c.k.H.q.+.$ #XFXFXFXFXFXFXFXFXFXFXFXFXFXFXFXFXFXFXFXFXFXFXFXFXFXFX",
"FXFXFXFXFXFXFXFXFXFXFXFXFXFXFXFXFXFXFXFXFXFXFXFXkX< X OX|.U ] _ h.`.:.OXj C FXFXFXFXFXFXFXFXFXFXFXFXFXFXFXFXFXFXFXFXFXFXFXFXFXFX",
"FXFXFXFXFXFXFXFXFXFXFXFXFXFXFXFXFXFXFXFXFXFXFXFXF = 1.6.&.I L -.P.` P.,X0 V FXFXFXFXFXFXFXFXFXFXFXFXFXFXFXFXFXFXFXFXFXFXFXFXFXFX",
"FXFXFXFXFXFXFXFXFXFXFXFXFXFXFXFXFXFXFXFXFXFXFXFXrXq oX=X;.P R -.V.V.m.!.9 @ jXFXFXFXFXFXFXFXFXFXFXFXFXFXFXFXFXFXFXFXFXFXFXFXFXFX",
"FXFXFXFXFXFXFXFXFXFXFXFXFXFXFXFXFXFXFXFXFXFXFXFXD * y.;X%.H K =.C.Z.V.:.+.- n FXFXFXFXFXFXFXFXFXFXFXFXFXFXFXFXFXFXFXFXFXFXFXFXFX",
"FXFXFXFXFXFXFXFXFXFXFXFXFXFXFXFXFXFXFXFXFXFXFXVX& = 7.W.O.K R -.H.Z.Z.) ,Xc . AXFXFXFXFXFXFXFXFXFXFXFXFXFXFXFXFXFXFXFXFXFXFXFXFX",
"FXFXFXFXFXFXFXFXFXFXFXFXFXFXFXFXFXFXFXFXFXFXFXsXo c oX9.O.Y Y -.I.m.N.B.,X4.X DXFXFXFXFXFXFXFXFXFXFXFXFXFXFXFXFXFXFXFXFXFXFXFXFX",
"FXFXFXFXFXFXFXFXFXFXFXFXFXFXFXFXFXFXFXFXFXFXFXlX2 dX1XK.$.o.Y -.T._ Z.m.q.0 # FXFXFXFXFXFXFXFXFXFXFXFXFXFXFXFXFXFXFXFXFXFXFXFXFX",
"FXFXFXFXFXFXFXFXFXFXFXFXFXFXFXFXFXFXFXFXFXFXFXCXX [.-XK.Y o.K &.H.` Z. .t.9 % AXFXFXFXFXFXFXFXFXFXFXFXFXFXFXFXFXFXFXFXFXFXFXFXFX",
"FXFXFXFXFXFXFXFXFXFXFXFXFXFXFXFXFXFXFXFXFXFXFXFXX x 7.K.I o.R ;.Z.B.M.B.=Xd $ jXFXFXFXFXFXFXFXFXFXFXFXFXFXFXFXFXFXFXFXFXFXFXFXFX",
"FXFXFXFXFXFXFXFXFXFXFXFXFXFXFXFXFXFXFXFXFXFXFXZX$ w y.0.$.o.I %.Q.B.` <.=X3.@ xXFXFXFXFXFXFXFXFXFXFXFXFXFXFXFXFXFXFXFXFXvXuXN uX",
"FXFXFXFXFXFXFXFXFXFXFXFXFXFXFXFXFXFXFXFXFXFXFXCXX x 1X0.I Y o.%.I.V.M.F.t.+.% SXFXFXFXFXFXFXFXFXFXFXFXFXFXFXFXFXnXnXsXg > N     ",
"lXqXsXNXFXFXFXFXFXFXFXFXFXFXFXFXFXFXFXFXFXFXFXFXX x 8XI.P Y Y %.I.m.m.8.6.p @ DXFXFXFXFXFXFXFXFXFXFXFXAXvX0XN C . # @ ; 6XD 2 A ",
"1 . 1 1 N iXjXiXCXNXCXFXFXFXFXFXFXFXFXFXFXFXFXFXC q y.Q.$.o.P %.I.<.a.F.t.d . NXFXFXFXFXFXFXFXFXDXzXV # & $ @ $ s p c hXeX; G AX",
"B l @X#Xz @ X @ @ # z G qXiXNXFXFXFXFXFXFXFXFXFXyX; 2.W.R Y P *./.Z.M.K.).1.X vXFXFXFXFXFXFXFXsXN > . @ s 5.2.~ 4X.X9XdX7 % vXFX",
"FXG z yXmXeX4.}.4 4 5 - X . z #XqXCXFXFXFXFXFXFXrX% e._.R I I ] I.C.b.B.t.c @ VXFXFXFXFXFXFX6X. @ t +.2.6.W.!.&X} 6..Xy % bXFXFX",
"FXvXz ; eXdX~ =X;X;X=X6.a p 0 = . A VXFXFXFXFXFXrX. e.<X$.o.o.] L.j.b.B.9.s % DXFXFXFXFXAXyXj q y 6.=X!. .| M.j.L.<X.X- k FXFXFX",
"FXFXCXh * }.).8.l.G.B.<.Q.,X}.0 {.X n ZXFXFXFXFXvX# 5.;XR I I T /.m.M.T.q.y @ FXFXFXFXDXG . 5 dXy.E.} l.g.i.d.s...9.+.$ tXFXFXFX",
"FXFXFXkX@ +.gX%.^.n.n.k.N.K.W.y.-X2.- . jXFXFXFXFX. 1.;X%.@.P / H.N.b.F.-X* l FXFXFXFXZ * y 2.q.8. .j.S.f.s.s.l.t.}.* z FXFXFXFX",
"FXFXFXVXk 7 5.6.*.c.S.c.` m.K.8.B.9.Q 8 : kXFXFXNXX d 4X=.K H $.U.a.P.P.e.- {.FXFXFXtX$ s e.0.K.F.| | k.s.d.C.8.=Xd @ 0XFXFXFXFX",
"FXFXFXFXpX@ 9 2XW ( z.Y.N.' } U.C. .q.}.8 # jXFXCXg 9 4X~.H R R T.>.P.(.2.$ D FXFXD = 4 .X&X} D.l.| j.k.d.z.K.0..X6 @ VXFXFXFXFX",
"FXFXFXFXAX; $ 3Xw.J K c.^.J...h.h.l.K.-X5.- & 6XAX{.% }.&XK / Y T.N.,.). X* Z DXtX$ 8 6.W.{ ` f.j.h.k.p._ c.W.}.+.* #XFXFXFXFXFX",
"FXFXFXFXFXtX@ x >X&.L ^  .8.H.U.` N.A.,.y.}.w @ 0X%X* c 4X@.R K A.m.,.u.XX< S aX# 5  X.X=.{ U.s.p.p.k.i._ J.W.;.- Z FXFXFXFXFXFX",
"FXFXFXFXFXFXZ . OX|.%.H H *.*Xv.N.` b.b.B.).w.0 - x ; M 4X*.K ] H.m._.(.4.g @Xk 7 1.;XD.G.z.s.` s.a.k.h.l.W.#.t $ FXFXFXFXFXFXFX",
"FXFXFXFXFXFXxXg j ]..X@.H L *.v.^...b.N.M.Z.(.u.8 @ = x +X.XT ^ C.b./.oXt @ m $  X.XK.{ Y.p._ p.s.j.M. .8.y.c * aXFXFXFXFXFXFXFX",
"FXFXFXFXFXFXFXlXX 0 ].|.T H K %.=./.L.p.k.C.r.oX+X* @ 5 [.;X] T U.S.,.-Xx . r 8 -X0.I.` s.h.Z.p.p.p.B.8.r.}.x . FXFXFXFXFXFXFXFX",
"FXFXFXFXFXFXFXFXz = ].9X.XU i O.T -.^.c.g.s.z.r.oX5.7 $ d :X&.K z.z.I.>Xs $ d +X!.F.d.x.p.p.`  .N.( P.;X+.* = rXFXFXFXFXFXFXFXFX",
"FXFXFXFXFXFXFXFXzXn $ 8 #.:X;.H H } v.c.i.x.A.R.)..X+.4 a ,XW.J z.M.!.7.6 - 5.oXK.j.s.i.p.k.C.H.) W.-Xc 4 r xXFXFXFXFXFXFXFXFXFX",
"FXFXFXFXFXFXFXFXFXVX5X@ t %X$X;.I I X.c.U.S.p.n.K.;X&Xy i y.).W j.G.~.~ - y :X0.j.g.n.f.k.` >.} ;Xe.y * = pXFXFXFXFXFXFXFXFXFXFX",
"FXFXFXFXFXFXFXFXFXFXDX0X% - v $X Xv i H p.c.S.x.l.Q.~.W u [ ).:. .Q.!.! i &.<X .g.f.g.p.l.,.W.t.2X0 $ h nXFXFXFXFXFXFXFXFXFXFXFX",
"FXFXFXFXFXFXFXFXFXFXFXAXrX> $ x #X$X'.%.K p.c.^.B.} L.F.W W 9.P.<.W.8.E ~ ~.^.h.g.i._ } K.!.y.oX- $ N SXFXFXFXFXFXFXFXFXFXFXFXFX",
"FXFXFXFXFXFXFXFXFXFXFXFXFXNXV # 9 1.%X$X#.E (  .J.,.G./.} J ) Q.l.0.) J } ^.h.z.s.s.8.<X+X5.0 * % 0XFXFXFXFXFXFXFXFXFXFXFXFXFXFX",
"FXFXFXFXFXFXFXFXFXFXFXFXFXFXNXqX$ ; j m [.6.] L J.0. .G.F.( ] } D.<.} ( ..C._ z.k.B.=X2X].0 ; 3 NXFXFXFXFXFXFXFXFXFXFXFXFXFXFXFX",
"FXFXFXFXFXFXFXFXFXFXFXFXFXFXFXFXFXuXX o #.3X:X6.} 0.{ | R. . .=.} | !.V.>.M.p.C.U.F.e.c * @ iXFXFXFXFXFXFXFXFXFXFXFXFXFXFXFXFXFX",
"FXFXFXFXFXFXFXFXFXFXFXFXFXFXFXFXDXnXF & o % p 5.-X9.C._ i.J...<.C... .>.>.,.,.P.-.#.7 X . 3 qXvXNXDXFXFXFXFXFXFXFXFXFXFXFXFXFXFX",
"FXFXFXFXFXFXFXFXFXFXFXFXFXSXlXD # # o # X * 5 9 E W S.n.k.z.` ..B...} >.N.A.} W 6 6 - = $ X @ # o l cXFXFXFXFXFXFXFXFXFXFXFXFXFX",
"FXFXFXFXFXFXFXFXFXFXFXFXjXn X . f a 3.e.oXe.q.:.) ) N.M.p.h.` C...l...j.` >.} ] <.0.!.oXoXe.3.1.g o   wXSXFXFXFXFXFXFXFXFXFXFXFX",
"FXFXFXFXFXFXFXFXFXFXAXwX$ @ x XX).).)._.Q.I.P.,._.V.j. .l.h.| l.h.h.h.j.| m.G.L.Q.K.q.0.K.I.T.T.fX5.7 @ @XZXFXFXFXFXFXFXFXFXFXFX",
"FXFXFXFXFXFXFXFXDXcXN X 6 w.:X&XH.H.>.' j.V.H.I.F.B.V.C.G.B. .h.z.k.| c.U.Y.G.H.H.Z.>.b.b.n.n.n.l.;X(.y # V NXFXFXFXFXFXFXFXFXFX",
"FXFXFXFXFXFXAXiXb X @ x XX1XE.| E.Y.T.G.^.^./.T.:.P.R.I. .` m.Z.j.U.Y.c.] ] D./.I.Z.A.N.d.S.g.n.x.x.R.7.p @ n vXFXFXFXFXFXFXFXFX",
"FXFXFXFXFXFXxX, n C {.9X.X[ ( J.( ] / ] ^ ^ L ! W.=X9.) ) >.P.,.W 0.Q.J.! J ! 9.q.q.P.V.a.j.f.g.x._ | 8X8Xm = o iXFXFXFXFXFXFXFX",
"FXFXFXFXFXFXNXFX> h x #.}.y.*.L L U W W T ! 0.:X.Xr.J i [ ~.W.E u J [ ~.&X&.u 9 ~ 2.u.(.-XW.K.D.h./.P.6.e.%X7X#X  cXFXFXFXFXFXFX",
"FXFXFXFXFXFXFXSXtXD $ @ 5 +.|.+XoX:X.X>X3X X[.4.8 4 a y.>X-X6.7 +.u 6 +X:Xw.}.9 % $ 5 f  X9Xe.>X1X+X].y - $ O O   vXFXFXFXFXFXFX",
"FXFXFXFXFXFXFXFXFXFXNX0X# @ - w 1.4.+.c 7 $ $ @ * 4 2.8XXX#.s   p M * c }.9X+Xd $ = r $ . X = e @ @ @ & N 6XaXkXAXFXFXFXFXFXFXFX",
"FXFXFXFXFXFXFXFXFXFXFXFXNXiXz . . X $ : & l yXtX. c 9XfXM e r o x m X @ e %XdXhX$ C ZXFXvXwXB : Z F yXVXFXFXFXFXFXFXFXFXFXFXFXFX",
"FXFXFXFXFXFXFXFXFXFXFXFXFXFXDXVXaXyXpXNXDXFXFXvX. ].eXm $ ; qX3 n n 3 C ; % M pX3 N FXFXFXFXFXFXFXFXFXFXFXFXFXFXFXFXFXFXFXFXFXFX",
"FXFXFXFXFXFXFXFXFXFXFXFXFXFXFXFXFXFXFXFXFXFXFX2 3 l &   < NXDXn n 3 qXFXVX> # X 2 + FXFXFXFXFXFXFXFXFXFXFXFXFXFXFXFXFXFXFXFXFXFX",
"FXFXFXFXFXFXFXFXFXFXFXFXFXFXFXFXFXFXFXFXFXFXAX3 FX2 h tXZXFXFXX 2 o cXFXFXFXNXqX. FXFXFXFXFXFXFXFXFXFXFXFXFXFXFXFXFXFXFXFXFXFXFX",
"FXFXFXFXFXFXFXFXFXFXFXFXFXFXFXFXFXFXFXFXFXFXFXVXwXvXAXFXFXFXDX  + #XDXFXFXFXFXFXFXFXFXFXFXFXFXFXFXFXFXFXFXFXFXFXFXFXFXFXFXFXFXFX",
"FXFXFXFXFXFXFXFXFXFXFXFXFXFXFXFXFXFXFXFXFXFXFXFXFXFXFXFXFXFXFXwXFXvXFXFXFXFXFXFXFXFXFXFXFXFXFXFXFXFXFXFXFXFXFXFXFXFXFXFXFXFXFXFX"
};
