/* XPM */
static char *aac19715eaf44409d13acbf1e70883dbXy8kK2ZaxoRtWmb1[] = {
/* columns rows colors chars-per-pixel */
"64 64 221 2 ",
"   c #1D1611",
".  c #271C14",
"X  c #2D211A",
"o  c #35241A",
"O  c #272421",
"+  c #2A2622",
"@  c #2D2A25",
"#  c #332B24",
"$  c #352B26",
"%  c #3B2D25",
"&  c #36302A",
"*  c #3C332C",
"=  c #3C3832",
"-  c #40291C",
";  c #473528",
":  c #41362D",
">  c #4B3629",
",  c #4C3A2D",
"<  c #523727",
"1  c #543C2B",
"2  c #5B3E2C",
"3  c #443B32",
"4  c #463A34",
"5  c #4B3D33",
"6  c #653B30",
"7  c #773D39",
"8  c #57412F",
"9  c #5B412E",
"0  c #4C433B",
"q  c #5C4432",
"w  c #56463A",
"e  c #61422F",
"r  c #634532",
"t  c #6A4632",
"y  c #644A36",
"u  c #6C4B35",
"i  c #644C3B",
"p  c #6B4D3A",
"a  c #774938",
"s  c #734E39",
"d  c #6C503D",
"f  c #74523D",
"g  c #7B543D",
"h  c #7B593E",
"j  c #4E4A45",
"k  c #514741",
"l  c #534B44",
"z  c #5C4F45",
"x  c #534D49",
"c  c #58514A",
"v  c #5C544D",
"b  c #5D5651",
"n  c #5E5954",
"m  c #654E41",
"M  c #7F4D40",
"N  c #6B5343",
"B  c #6A574A",
"V  c #745643",
"C  c #7C5641",
"Z  c #7B5A44",
"A  c #765A48",
"S  c #7B5D4A",
"D  c #635B55",
"F  c #635E59",
"G  c #7D604B",
"H  c #66615C",
"J  c #6A655B",
"K  c #6B635C",
"L  c #796559",
"P  c #6D6660",
"I  c #6D6A64",
"U  c #736B63",
"Y  c #756B64",
"T  c #79736B",
"R  c #7A7671",
"E  c #813E39",
"W  c #83443D",
"Q  c #89423C",
"!  c #824C3D",
"~  c #82563D",
"^  c #835A3E",
"/  c #8C5D3F",
"(  c #925E3F",
")  c #8C4641",
"_  c #874842",
"`  c #974B48",
"'  c #895346",
"]  c #845B43",
"[  c #8A5D44",
"{  c #835E49",
"}  c #8A5F48",
"|  c #915E42",
" . c #95594A",
".. c #995B51",
"X. c #AB5754",
"o. c #B15B54",
"O. c #856045",
"+. c #8C6145",
"@. c #84624B",
"#. c #8C634A",
"$. c #8D684F",
"%. c #936345",
"&. c #9C6346",
"*. c #93654B",
"=. c #99664B",
"-. c #95694D",
";. c #9B6B4D",
":. c #836552",
">. c #866A55",
",. c #876956",
"<. c #8C6A53",
"1. c #8C6F59",
"2. c #946C53",
"3. c #986853",
"4. c #9B6D52",
"5. c #8D715D",
"6. c #967056",
"7. c #9C7156",
"8. c #94715A",
"9. c #9B745B",
"0. c #9D795E",
"q. c #A16F4F",
"w. c #A16E53",
"e. c #A46F57",
"r. c #A47254",
"t. c #A97556",
"y. c #AD7857",
"u. c #A3745A",
"i. c #AA765A",
"p. c #A5795D",
"a. c #AD7A5C",
"s. c #B27D5D",
"d. c #836D64",
"f. c #8B7667",
"g. c #957865",
"h. c #9D7B62",
"j. c #827C75",
"k. c #A47863",
"l. c #A37C63",
"z. c #AB7D62",
"x. c #B27E61",
"c. c #B6805F",
"v. c #9E816A",
"b. c #84827A",
"n. c #8D857A",
"m. c #8A847C",
"M. c #978576",
"N. c #A58066",
"B. c #AC8163",
"V. c #A2836B",
"C. c #AD836B",
"Z. c #B58264",
"A. c #B98566",
"S. c #B3856B",
"D. c #BB8669",
"F. c #B3896F",
"G. c #BD8A6C",
"H. c #A48671",
"J. c #A48B78",
"K. c #B68B75",
"L. c #BB8C72",
"P. c #A4907D",
"I. c #BD9179",
"U. c #C08D6E",
"Y. c #C08E72",
"T. c #C19075",
"R. c #C1937B",
"E. c #8C8B87",
"W. c #938D84",
"Q. c #94928C",
"!. c #9B958B",
"~. c #9C9B96",
"^. c #A79789",
"/. c #B59886",
"(. c #A69D92",
"). c #A6A299",
"_. c #B8A69A",
"`. c #A7A7A2",
"'. c #ACACA5",
"]. c #ADADA9",
"[. c #B4ADA5",
"{. c #B3B3AD",
"}. c #B9B3AB",
"|. c #B6B6B1",
" X c #B8B7B3",
".X c #BBBAB5",
"XX c #BEBEB9",
"oX c #C0B3A8",
"OX c #C1BCB5",
"+X c #C0BFBB",
"@X c #BFC0BE",
"#X c #C2C1BD",
"$X c #C8C7BF",
"%X c #C5C5C2",
"&X c #C8C7C3",
"*X c #C7C8C5",
"=X c #CACAC6",
"-X c #CDCDCA",
";X c #D0CFCA",
":X c #CFD0CC",
">X c #D2D2CD",
",X c #D5D5D1",
"<X c #D8D7D2",
"1X c #D7D8D3",
"2X c #DBDBD6",
"3X c #DDDED9",
"4X c #DFE0DB",
"5X c #E1E1DE",
"6X c #E4E4E2",
"7X c #E7E8E6",
"8X c #EAEAE6",
"9X c #ECEDE9",
"0X c #EFF0EC",
"qX c #F3F2ED",
"wX c #F5F5F1",
"eX c #F8F7F2",
"rX c #FBF9F4",
"tX c #FEFDF6",
"yX c #FEFEF9",
"uX c #FEFFFD",
"iX c #FEFEFE",
/* pixels */
"3X3X3X5X2X3X5X3X3X3X3X3X2X3X3X3X2X4X3X3X3X3X3X3X3X3X3X3X2X3X3X3X3X2X2X3X3X3X2X3X3X3X3X3X5X6X7X0XrXiXiXiXuXuXuXuXuXuXuXuXuXuXuXuX",
"3X4X3X3X5X2X2X2X3X2X2X3X2X2X2X2X2X2X2X3X3X3X3X3X3X3X3X3X3X3X2X3X3X3X3X3X2X3X2X3X3X4X4X4X5X6X7X0XeXiXuXiXuXuXuXuXuXuXuXuXuXuXuXuX",
"2X4X3X3X5X2X2X4X2X2X2X2X2X2X2X3X2X2X2X2X3X3X3X3X2X3X3X2X3X2X3X2X2X2X3X3X4X2X4X2X3X3X3X4X5X6X7X0XqXuXuXuXuXuXuXuXuXuXuXuXuXuXuXuX",
"4X4X3X3X2X2X2X2X2X2X2X2X2X3X2X2X2X2X2X2X2X2X2X2X2X3X2X3X3X2X3X2X3X3X3X2X2X2X4X2X3X3X4X6X6X6X9X0XwXrXuXuXuXuXuXuXuXuXuXuXuXuXuXuX",
"4X2X2X4X2X2X2X2X2X3X2X2X2X2X2X2X2X2X2X1X2X2X2X2X2X2X3X3X3X3X2X2X2X4X4X4X4X2X4X4X4X5X6X6X7X7X9X0XqXrXtXiXuXuXuXuXuXuXuXuXuXuXuXuX",
"4X2X2X4X2X2X2X2X2X2X2X2X2X2X2X2X2X1X2X2X2X2X2X2X2X2X2X2X@Xb.J T J b.m.b.'.1X4X4X6X6X6X6X6X6X7X0XqXrXtXuXuXuXuXuXuXuXuXuXuXuXuXuX",
"2X2X2X2X2X2X2X2X2X2X2X2X2X2X2X2X2X2X2X2X2X2X2X2X2X$X).J 0 @ O + @ O @ @ = n m.@X2X6X6X6X6X6X7X9XqXqXrXtXuXuXuXiXuXuXuXuXuXuXuXuX",
"4X2X2X2X2X2X2X2X2X2X2X2X2X2X2X3X2X2X2X2X2X2X>X@Xn.v : @ @ @ + + O O O @ @ @ @ 0 I XX6X6X5X5X6X8X0XrXtXtXrXtXtXiXuXuXuXuXuXuXuXuX",
"2X2X2X2X2X4X2X2X2X2X2X2X2X2X2X2X1X2X4X1X4X$Xn.0 * @ @ + + X X @ @ & & @ + + @ # * l !.:X4X5X6X6X8XqXrXrXrXuXtXuXuXuXuXuXuXuXuXuX",
"2X2X2X2X2X2X2X2X2X2X2X2X2X2X<X2X1X1X1X2X@XJ = & $ * * : * : * : 3 8 8 8 8 , , : : = = H `.2X3X6X8XqXqXrXtXtXuXiXuXuXuXuXuXuXuXtX",
"4X2X4X2X2X2X2X2X2X2X2X2X2X1X2X2X1X4X4X).i 0 0 8 q N Z Z O.] s p h h G $.+.+.+.O.N i 8 * 0 Q.>X4X5X8XqXqXrXqXiXrXtXtXuXtXuXtXtXtX",
"2X2X2X2X2X2X2X2X2X2X2X2X2X2X2X2X4X;Xn.0 i B A G 9.u.u.r.u.r.r.q.q.B.q.B.r.q.7.6.6.:.A m z 3 I -X5X5X8X0XqXrXwXrXrXrXrXrXrXrXrXtX",
"2X2X2X4X2X2X2X2X2X2X2X2X2X2X2X2X=XU 0 B 5.0.h.p.u.p.u.t.t.t.t.t.B.q.q.c.q.B.q.q.4.4.2.8.g.K * T >X3X5X8X7X8X0X0XqXwXqXwXqXwXwXwX",
"2X2X2X2X2X2X2X2X2X2X2X2X2X2X2X>XR = B g.h.l.p.p.p.i.y.t.y.y.y.y.c.c.c.c.q.c.c.q.7.4.2.6.8.g.S 5 J $X5X5X6X6X7X7X8X7X8X9X9X9X9X9X",
"4X2X2X4X2X3X3X2X2X2X2X2X3X3X2X(.3 m g.h.h.0.u.p.i.i.s.s.s.s.c.s.c.c.c.c.c.c.c.q.r.q.;.-.2.2.8.B & Y >X3X3X4X5X5X6X6X6X6X4X6X5X6X",
"4X2X4X2X2X3X2X3X2X2X2X2X2X3X$Xv 3 L h.0.0.u.t.i.a.c.c.c.c.A.A.A.c.c.A.A.c.c.B.r.t.q.q.;.*.<.1.L 5 = `.<X,X3X3X3X5X5X4X4X4X3X3X4X",
"4X2X4X2X4X2X2X4X2X2X2X2X2X2XP.& l >.N.6.6.N.q.B.a.c.Z.A.A.A.A.A.G.G.G.G.A.Z.a.a.t.q.;.;.-.-.<.@.z & H &X,X,X,X1X3X3X5X3X1X1X1X3X",
"2X4X2X2X2X2X2X2X2X2X2X2X2X$XJ = z >.6.N.q.q.q.q.a.Z.c.A.G.G.G.G.U.U.G.G.A.Z.x.i.r.q.;.-.-.#.$.@.N : = ~.:X:X:X:X:X,X,X,X,X,X,X,X",
"2X2X2X2X2X2X2X2X2X1X2X2X2X'.3 3 N $.v.7.q.q.q.y.a.a.A.D.A.G.G.U.U.U.L.G.A.A.x.x.y.q.q.=.%.-.#.@.N 5 # I *X-X:X:X:X:X,X,X,X,X,X,X",
"4X2X2X2X2X2X2X2X1X1X>X>X>Xb.& 8 B >.$.-.q.q.q.B.Z.A.D.G.G.G.G.I.T.T.L.G.A.S.D.x.c.B.q.;.=.=.#.@.A w & j XX-X*X:X-X-X:X:X:X:X:X,X",
"2X2X2X2X2X2X<X<X1X1X:X:X$XJ * 0 A $.N.;.q.N.y.B.K.L.L.L.L.Y.T.T.Y.R.I.L.L.L.L.F.F.Z.N.q.;.%.#.#.G i = 3 ].=X-X*X-X-X-X-X-X:X-X,X",
"3X2X2X2X2X1X<X<X1X>X:X:X@Xz * 8 Z 6.-.-.q.B.B.G.I.I.R.R.R.R.R.R.T.R.R.R.R./.L.L.F.F.B.N.7.-.%.@.O.d ; = ).=X*X*X-X-X-X-X-X:X-X,X",
"3X2X2X1X1X1X>X1X1X:X;X;X{.0 : d <.v.-.N.N.N.B.F.C.F.F.K.L.I.R.R.R.R.R.R.I.z.h.8.:.>.6.8.2.2.#.@.#.Z , * ~.*X*X*X*X-X*X-X-X-X-X,X",
"2X2X2X2X1X1X1X>X:X:X$X;X).3 y G N.N.$.N.v.>.G B m N :.8.9.l.F.L.T.F.L.C.8.{ C p i w 8 N S @.$.$.$.@.w & ~.*X*X*X*X*X-X-X,X-X-X,X",
"2X2X2X1X1X1X>X>X:X:X=X;X!.= B v.6.N.<.G A N N V Z C C Z +.4.p.Z.L.S.z.u.} g f g ] { V i p V G @.d...b $ Q.*X%X*X*X*X-X-X-X-X,X,X",
"2X2X2X1X1X1X1X:X:X=X=X=Xn.= B v.N.$.v.G G $.2.7.4.4.;.%.| =.r.x.L.S.i.;./ g ~ g g ~ ~ [ $.{ Z G ' d._ = E.%X%X*X*X*X*X*X-X-X-X,X",
"1X2X1X1X1X1X:X:X=X:X=X:XP.= A v.-.N.G $.-.;.-.2.3.*.#.*.| %.;.a.G.A.w.%.a s s g Z { C V ~ [ ] Z :...` = Q.@X@X*X*X*X*X-X-X-X-X,X",
"2X2X1X2X1X>X:X:X:X=X=X=X(.0 L v.v.v.<.%.[ g g s y i f g ] ^ =.t.x.i.=.~ u s V s i y 6 6 t g ] Z { :.d.3 ~.*X@X%X*X*X*X-X-X-X-X,X",
"2X2X2X1X1X>X:X:X=X=X=X*X@X0 >.v.-.$.-.O.u 8 w % + 4 L M C C  .r.t.t.=.~ s g V B % $ % 2 < t C ] { #.>.c ].@X%X@X*X*X*X-X-X-X-X,X",
"2X2X2X1X1X>X:X:X=X=X=X=X@XJ G $.N.;.;.h e d d.0 % w f.S s ' =.t.y.w.=.} s u S d.4 o 5 L r e g ] } } >.d.@X@X%X*X*X-X-X-X-X-X-X-X",
"2X2X2X1X>X>X;X;X=X=X=X=X@XT v.v.-.q.%.O.O.O.O.Z s C { S { 3.e.k.y.t.=.%.' V V V V i V C g C C [ *.*.<.j.@X@X@X*X*X*X*X-X-X-X-X,X",
"2X2X2X1X>X>X;X$X=X=X$X$X).>.v.v.N.;.N.-.6.-.%.#.*.2.2.#.*.4.7.i.x.i.-.=.%.' { :.{ { { ] } +.+.%.%.$.<.,.j.].@X@X@X@X*X-X-X-X-X,X",
"1X3X1X1X>X:X-X-X=X=X$XOXN.6.v.N.0.p.u.9.9.u.u.t.p.p.e.4.e.9.k.z.x.x.4.3.*.-.*.3.7.7.7.6.4.-.-.-.*.$.1.2.! J.#X+X%X&X*X*X-X-X-X:X",
"4X3X1X1X>X:X=X=X=X=X=X}.q.N.v.N.0.N.p.p.a.i.z.z.z.i.i.i.e.e.k.S.L.D.k.3...4.w.4.7.p.0.r.7.7.-.-.-.<.1.2.! u.OX#XXX%X*X=X-X-X-X:X",
"3X1X1X>X:X:X=X*X&X&X*X_.&.N.V.N.N.N.p.a.i.a.i.s.a.s.x.x.9.k.z.K./.R.x.4.$.=.r.u.q.r.t.7.r.q.;.-.-.<.1.2.[ 3.}.XX@X%X&X*X*X-X-X:X",
"3X1X1X>X:X:X*X&X&X&X$XI.q.N.H.N.N.N.B.a.a.a.s.x.x.x.x.k.k.e.9.x.R.Y.r...4.;.t.a.B.t.r.r.;.;.;.-.<.$.1.#. . ._.%X@X&X*X*X*X-X-X:X",
"2X<X>X>X>X=X&X$X#X&X#XF.B.B.H.V.V.N.N.B.z.x.x.Z.U.U.x.e.r.u - S 7.;.6 < 3.3.t.x.c.t.r.r.q.;.;.-.$.<.8.8.*.w.[.XX@X@X%X%X*X*X-X:X",
"<X<X<X>X>X=X=X$X%X#X&X/.c.B.H.V.N.N.B.p.x.x.A.D.U.U.S.e.3.3. .3.*.#.] [ ..*.i.Z.c.B.y.r.q.;.-.-.$.<.5.6.e.w.[.XXXX@X%X%X*X*X*X-X",
"3X1X<X>X:X=X&X&X&X#X&X_.B.N.H.v.N.N.N.a.s.x.x.U.U.D.x.i.3...3.9.z.e.-. . .4.r.a.c.c.B.q.q.-.-.-.$.<.5.#.3.k. X.XXX@X@X%X*X%X*X-X",
"1X1X>X>X-X=X%X&X#X$X&X}.N.F.H.V.V.N.l.B.x.U.x.A.x.i.e.w.3.} 2.7.h.9.$.@.#.=.w.w.q.c.q.B.q.-.;.$.<.1.5.7.3.J.XX.X.X@X@X%X%X*X*X-X",
"3X>X<X;X;X$X$X#X$X@X@XoXI.F.F.P.V.N.B.B.B.c.c.y.u.w.;.3.$.2.u.k.9.k.r.*.@.+.#.-.;.q.q.w.q.-.-.$.,.1.8.3.k.(..X.XXX@X%X%X%X%X%X=X",
"3X1X>X>X;X$X&X#X@X$XOX$X_.F.B.H.v.V.N.B.B.a.r.7.6.2.6.6.7.r.e.a.i.i.e.4.3.3.$.$.$.*.=.q.q.;.-.$.1.,.3.e.l.]..X.X.X.X@X%X%X%X%X&X",
"2X<X<X;X;X&X#X#X@X@XOX@XOXP.I.P.J.v.N.N.B.t.4.$.7.9.u.r.3......... .` ' ' *.-.2.<.#.+.=.q.6.$.<.1.M.(.W.[. X.X X.XXX@X@X%X%X%X&X",
"2X2X<X;X&X&X#X#XOX$X@X@X@X@X@X}.P.v.v.p.t.7.-.6.7.4.-.' W W ! W _ _ _ a a a ~ *.6.+.+.%.;.-.$.1.f.(..X X.X X.X X.XXX@X%X%X%X%X&X",
"3X<X>X;X=X#X#X#XOX&X@XOXoX@X@X}.(.V.V.8.7.6.-.-.%.~ t 7 E ) ) ) E Q Q E 7 7 6 ! %.+.O.%.%.$.<.5.M. X X X X.X X.X.XOXXX&X%X%X%X%X",
"3X<X>X;X=X$X+X$X@X@XOX@X@X@X@X@X@XV.v.v.9.q.-.-.%.[ ' ' ` X.X.o.o.X.X.` ` Q g / ( +.+.+.#.$.1.5.^..X X X X X X.X.XOXXX#X%X@X%X&X",
"<X<X;X;X=X$X+X+XOX@X@X@X@X@X}.@X@XP.v.v.6.;.;.%.=.&.' ' ` X.X.o.X.X.X.` Q M ] | %./ +.+.O.$.1.n.]..X X X X X X XXXXXXX&X%X%X%X%X",
"<X<X;X;X=X&X#X#X@X@XOXOX@XOX@X@X@X[.V.v.6.-.%.%.=.&.%.~ ! _ _ ` ` ) ) ! a _ ( | ( / / +.$.<.L M. X X X X X X X XXXXXXX%X+XXX%X&X",
">X>X;X;X=X$X+X+X+X+X+XOX.X+XXX.X@X}.J.v.6.$.+./ %./ %.( / [ g g ~ a g ^ / ( / / +.^ ^ O.:.>.:.W..X X X X|. X X.XXXXX@X%X%XXX&X&X",
"<X;X;X;X=X$X$X+X+X+X+X+X+X.XXXOX.X@XP.5.6.#.O.+.+./ / %.=.%.;.u.r.r.;.-.&.%.+.O.^ ^ ^ Z @.:.G !. X X X X X X XXXXXXX.X&XXX%X@X&X",
"<X>X;X;X=X=X$X+X+X+XOX+XXX.X.X.X@X.X^.1.1.$.h O.O.%.%.-.$.7.N.N.l.k.6.-.$.%.+.O.O.h C Z S S S (. X|. X|.|.|.|..X.XXX@X@X#XXX#X&X",
";X;X;X;X=X&X$X$X+X+X+X+X.X.X.X.X.X.X^.<.<.G Z G O.%.$.$.+.$.$.8.9.7.9.$.O.O.@.O.C h f V V V A n.|.|.|.|.|.|. X.XXXXXXX@XXXXXXX&X",
";X;X;X$X>X$X$X+X+XXXXXOX+X.X.X.X.X[.L :.@.G V Z h O.O.O.O.$.G $.<.$.$.@.G O.O.h h d d d p V C w ~.|.{.|.|.|. XXXXX#X#X#XXXXX#X%X",
";X;X;X>X;X$X$X$X+XXXXX.X.X.X.X.X Xn.3 S #.O.V p d h A G G Z Z G V S A g Z G f p q q q y s g C * F `.{.].].|. X.XXXXXXXXX#XXXXX%X",
";X;X$X$X$X$X$X$X+XXX.XXXOX.X.X}.W.z X i #.O.Z d y w y y f d y y i q i p d y 8 8 9 9 y d f ] V o 4 E.].].].{.|..XXXXXXXXXXXXXXXXX",
";X;X;X;X>X$X$X$X#XXXXXXX.X.X{.n.K 0   5 #.O.] g y q 8 8 8 8 q q q 8 q 1 < < , < 1 r u h ] ] f X & D R E.).].{.|..X.XXXXX.XXXXX#X",
"$X;X$X;X=X=X$X#X#XOX.X[.!.n.j.P H *   ; +.+.] ] f t 9 2 9 9 9 e r q e 9 < < < 2 t s g ] ] ] p X @ j F j x R ~.].|.|. X.XXXXXXXXX",
";X;X;X=X;X=X&X+X.X~.T D b J K U B #   ; ] #.*.} ] g s e 2 9 1 2 9 1 1 < 1 e t s f g C ] ' ] s o @ 4 H F j j b I E.~.]. X X.XXXXX",
";X$X;X;X$X$X$X[.j.c l J Y P K U B # . ; ] *.*.-.} ^ ~ g f s u t t t t u a g ~ ~ ] ~ ] [ ] ~ u . @ 4 F H F x x x F P R Q.`.}. XXX",
";X;X$X$X#X[.!.T m x H K K P P Y w X . > Z #.-.-.*.] ] ] ] ] ' [ ] [ ' / / ^ ^ ^ ~ ~ } } ^ ] t . @ 0 F H F n x x c n F F I E.~.|.",
"$X$X[.!.m.T Y D v D K K K P Y Y z o X > f #.-.-.4.*.} ] ' { } *.*. .[ #.[ [ ^ ^ ] [ [ [ [ ! 6 . $ k D K F F F x x x n n F F P R ",
"(.M.j.Y L K F B D F K K K P Y Y z % X > f +.-.7.4.-.*.} [ [ } -.-.*.*.| [ ] ] ] [ [ *.%.[ C < . 4 k F K F F F n x x b b n F n I ",
"T Y J J D D D D D K K K K P Y U z ; o > p ] -.7.7.7.-.%.*.} } } } [ [ #.#.} | [ #.=.=.*.{ u o o k k b K H F F F b x b n n n n P ",
"H D v B D v B D D D D D H K K J w > o ; y h ] -.4.3.*.*.} #.*.} ] [ [ } } } [ } #.*.$.[ s 2 X : k j b F F b b b b x x b c c x F "
};
